<svg id="visual" viewBox="0 0 900 600" width="900" height="600" xmlns="http://www.w3.org/2000/svg" xmlns:xlink="http://www.w3.org/1999/xlink" version="1.1"><g stroke-width="1" stroke-linejoin="bevel"><path d="M440 286.1L458 321L485 306Z" fill="#1f1f1f" stroke="#1f1f1f"></path><path d="M458 321L469 334.9L485 306Z" fill="#303030" stroke="#303030"></path><path d="M481 249.3L459 248.3L440 286.1Z" fill="#1b1b1b" stroke="#1b1b1b"></path><path d="M561 343.9L512 290L485 306Z" fill="#1b1b1b" stroke="#1b1b1b"></path><path d="M485 306L481 249.3L440 286.1Z" fill="#1f1f1f" stroke="#1f1f1f"></path><path d="M512 290L481 249.3L485 306Z" fill="#000000" stroke="#000000"></path><path d="M521 257.1L479 246.1L481 249.3Z" fill="#1f1f1f" stroke="#1f1f1f"></path><path d="M481 249.3L479 246.1L459 248.3Z" fill="#1b1b1b" stroke="#1b1b1b"></path><path d="M387 246.1L410 334L440 286.1Z" fill="#0e0e0e" stroke="#0e0e0e"></path><path d="M440 286.1L410 334L458 321Z" fill="#131313" stroke="#131313"></path><path d="M458 321L410 334L469 334.9Z" fill="#272727" stroke="#272727"></path><path d="M512 290L521 257.1L481 249.3Z" fill="#0e0e0e" stroke="#0e0e0e"></path><path d="M464 384.7L480 373.9L469 334.9Z" fill="#000000" stroke="#000000"></path><path d="M469 334.9L561 343.9L485 306Z" fill="#070707" stroke="#070707"></path><path d="M413 375.7L464 384.7L469 334.9Z" fill="#303030" stroke="#303030"></path><path d="M410 334L413 375.7L469 334.9Z" fill="#171717" stroke="#171717"></path><path d="M422 206.3L387 246.1L459 248.3Z" fill="#303030" stroke="#303030"></path><path d="M459 248.3L387 246.1L440 286.1Z" fill="#303030" stroke="#303030"></path><path d="M410 334L377 365.7L397 357.9Z" fill="#171717" stroke="#171717"></path><path d="M397 357.9L413 375.7L410 334Z" fill="#000000" stroke="#000000"></path><path d="M500 199.3L459 248.3L479 246.1Z" fill="#272727" stroke="#272727"></path><path d="M500 199.3L422 206.3L459 248.3Z" fill="#303030" stroke="#303030"></path><path d="M521 257.1L500 199.3L479 246.1Z" fill="#000000" stroke="#000000"></path><path d="M513 418.6L561 343.9L480 373.9Z" fill="#1b1b1b" stroke="#1b1b1b"></path><path d="M480 373.9L561 343.9L469 334.9Z" fill="#131313" stroke="#131313"></path><path d="M512 290L574 263.1L521 257.1Z" fill="#0e0e0e" stroke="#0e0e0e"></path><path d="M521 257.1L554 207.4L500 199.3Z" fill="#232323" stroke="#232323"></path><path d="M336 322L377 365.7L410 334Z" fill="#070707" stroke="#070707"></path><path d="M397 357.9L390 391.6L413 375.7Z" fill="#272727" stroke="#272727"></path><path d="M422 206.3L387 209.4L387 246.1Z" fill="#1f1f1f" stroke="#1f1f1f"></path><path d="M358 379.9L373 384.7L377 365.7Z" fill="#272727" stroke="#272727"></path><path d="M561 343.9L574 263.1L512 290Z" fill="#2c2c2c" stroke="#2c2c2c"></path><path d="M377 365.7L390 391.6L397 357.9Z" fill="#2c2c2c" stroke="#2c2c2c"></path><path d="M413 375.7L444 431.6L464 384.7Z" fill="#1b1b1b" stroke="#1b1b1b"></path><path d="M336 322L410 334L387 246.1Z" fill="#0e0e0e" stroke="#0e0e0e"></path><path d="M377 365.7L373 384.7L390 391.6Z" fill="#272727" stroke="#272727"></path><path d="M574 263.1L554 207.4L521 257.1Z" fill="#000000" stroke="#000000"></path><path d="M327 262L336 322L387 246.1Z" fill="#1b1b1b" stroke="#1b1b1b"></path><path d="M462 442.4L513 418.6L464 384.7Z" fill="#000000" stroke="#000000"></path><path d="M464 384.7L513 418.6L480 373.9Z" fill="#303030" stroke="#303030"></path><path d="M336 322L358 379.9L377 365.7Z" fill="#1b1b1b" stroke="#1b1b1b"></path><path d="M371 406.6L444 431.6L390 391.6Z" fill="#1f1f1f" stroke="#1f1f1f"></path><path d="M500 199.3L442 163.6L422 206.3Z" fill="#232323" stroke="#232323"></path><path d="M422 206.3L442 163.6L387 209.4Z" fill="#0e0e0e" stroke="#0e0e0e"></path><path d="M459 153.6L442 163.6L500 199.3Z" fill="#0e0e0e" stroke="#0e0e0e"></path><path d="M336 235.1L340 237.1L357 202.3Z" fill="#000000" stroke="#000000"></path><path d="M357 202.3L340 237.1L387 246.1Z" fill="#070707" stroke="#070707"></path><path d="M371 406.6L390 391.6L373 384.7Z" fill="#171717" stroke="#171717"></path><path d="M390 391.6L444 431.6L413 375.7Z" fill="#1f1f1f" stroke="#1f1f1f"></path><path d="M340 237.1L327 262L387 246.1Z" fill="#171717" stroke="#171717"></path><path d="M357 202.3L387 246.1L387 209.4Z" fill="#171717" stroke="#171717"></path><path d="M340 237.1L336 235.1L327 262Z" fill="#1b1b1b" stroke="#1b1b1b"></path><path d="M574 263.1L569 205.3L554 207.4Z" fill="#000000" stroke="#000000"></path><path d="M464 138.4L459 153.6L484 133.4Z" fill="#303030" stroke="#303030"></path><path d="M361 181.4L357 202.3L387 209.4Z" fill="#171717" stroke="#171717"></path><path d="M358 379.9L371 406.6L373 384.7Z" fill="#000000" stroke="#000000"></path><path d="M459 153.6L500 199.3L484 133.4Z" fill="#070707" stroke="#070707"></path><path d="M442 163.6L361 181.4L387 209.4Z" fill="#232323" stroke="#232323"></path><path d="M483 466.6L462 442.4L455 492.3Z" fill="#070707" stroke="#070707"></path><path d="M444 431.6L462 442.4L464 384.7Z" fill="#2c2c2c" stroke="#2c2c2c"></path><path d="M612 279L605 264.1L574 263.1Z" fill="#1b1b1b" stroke="#1b1b1b"></path><path d="M574 263.1L605 264.1L569 205.3Z" fill="#1f1f1f" stroke="#1f1f1f"></path><path d="M534 463.4L548 420.6L513 418.6Z" fill="#000000" stroke="#000000"></path><path d="M513 418.6L548 420.6L561 343.9Z" fill="#272727" stroke="#272727"></path><path d="M561 343.9L612 279L574 263.1Z" fill="#0e0e0e" stroke="#0e0e0e"></path><path d="M617 286L612 279L561 343.9Z" fill="#0e0e0e" stroke="#0e0e0e"></path><path d="M353 144.4L361 181.4L442 163.6Z" fill="#0e0e0e" stroke="#0e0e0e"></path><path d="M357 202.3L288 215.3L336 235.1Z" fill="#303030" stroke="#303030"></path><path d="M623 307.9L617 286L561 343.9Z" fill="#1f1f1f" stroke="#1f1f1f"></path><path d="M612 279L643 261.1L605 264.1Z" fill="#1b1b1b" stroke="#1b1b1b"></path><path d="M484 133.4L500 199.3L557 143.6Z" fill="#1b1b1b" stroke="#1b1b1b"></path><path d="M459 153.6L464 138.4L442 163.6Z" fill="#171717" stroke="#171717"></path><path d="M627 354.9L623 307.9L561 343.9Z" fill="#272727" stroke="#272727"></path><path d="M576 459.4L578 413.7L548 420.6Z" fill="#070707" stroke="#070707"></path><path d="M548 420.6L578 413.7L561 343.9Z" fill="#232323" stroke="#232323"></path><path d="M557 143.6L500 199.3L554 207.4Z" fill="#303030" stroke="#303030"></path><path d="M421 481.3L462 442.4L444 431.6Z" fill="#1b1b1b" stroke="#1b1b1b"></path><path d="M462 442.4L483 466.6L513 418.6Z" fill="#070707" stroke="#070707"></path><path d="M606 399.7L627 354.9L561 343.9Z" fill="#0e0e0e" stroke="#0e0e0e"></path><path d="M578 413.7L606 399.7L561 343.9Z" fill="#0e0e0e" stroke="#0e0e0e"></path><path d="M608 400.7L606 399.7L578 413.7Z" fill="#070707" stroke="#070707"></path><path d="M626 436.6L608 400.7L578 413.7Z" fill="#0e0e0e" stroke="#0e0e0e"></path><path d="M606 399.7L608 400.7L627 354.9Z" fill="#000000" stroke="#000000"></path><path d="M642 164.6L557 143.6L569 205.3Z" fill="#171717" stroke="#171717"></path><path d="M569 205.3L557 143.6L554 207.4Z" fill="#070707" stroke="#070707"></path><path d="M624 208.4L569 205.3L605 264.1Z" fill="#1f1f1f" stroke="#1f1f1f"></path><path d="M483 466.6L534 463.4L513 418.6Z" fill="#000000" stroke="#000000"></path><path d="M336 322L289 351.7L358 379.9Z" fill="#131313" stroke="#131313"></path><path d="M302 409.7L355 445.4L371 406.6Z" fill="#303030" stroke="#303030"></path><path d="M269 332.9L289 351.7L336 322Z" fill="#131313" stroke="#131313"></path><path d="M269 332.9L336 322L259 305Z" fill="#0e0e0e" stroke="#0e0e0e"></path><path d="M302 409.7L371 406.6L358 379.9Z" fill="#131313" stroke="#131313"></path><path d="M371 406.6L417 480.4L444 431.6Z" fill="#0e0e0e" stroke="#0e0e0e"></path><path d="M623 307.9L643 261.1L617 286Z" fill="#303030" stroke="#303030"></path><path d="M617 286L643 261.1L612 279Z" fill="#000000" stroke="#000000"></path><path d="M666 337L643 261.1L623 307.9Z" fill="#131313" stroke="#131313"></path><path d="M642 237.3L624 208.4L605 264.1Z" fill="#131313" stroke="#131313"></path><path d="M431 86.7L353 144.4L442 163.6Z" fill="#1f1f1f" stroke="#1f1f1f"></path><path d="M361 181.4L288 215.3L357 202.3Z" fill="#303030" stroke="#303030"></path><path d="M336 235.1L288 215.3L327 262Z" fill="#171717" stroke="#171717"></path><path d="M431 86.7L442 163.6L464 138.4Z" fill="#171717" stroke="#171717"></path><path d="M417 480.4L421 481.3L444 431.6Z" fill="#1f1f1f" stroke="#1f1f1f"></path><path d="M483 466.6L533 509.3L534 463.4Z" fill="#0e0e0e" stroke="#0e0e0e"></path><path d="M355 445.4L417 480.4L371 406.6Z" fill="#000000" stroke="#000000"></path><path d="M643 261.1L642 237.3L605 264.1Z" fill="#232323" stroke="#232323"></path><path d="M557 143.6L536 120.7L484 133.4Z" fill="#131313" stroke="#131313"></path><path d="M484 133.4L498 91.7L464 138.4Z" fill="#1f1f1f" stroke="#1f1f1f"></path><path d="M563 88.6L536 120.7L557 143.6Z" fill="#232323" stroke="#232323"></path><path d="M289 351.7L285 369.9L358 379.9Z" fill="#131313" stroke="#131313"></path><path d="M279 150.6L288 215.3L361 181.4Z" fill="#131313" stroke="#131313"></path><path d="M289 351.7L269 332.9L285 369.9Z" fill="#1b1b1b" stroke="#1b1b1b"></path><path d="M483 466.6L455 492.3L503 543.1Z" fill="#131313" stroke="#131313"></path><path d="M421 481.3L455 492.3L462 442.4Z" fill="#0e0e0e" stroke="#0e0e0e"></path><path d="M285 369.9L302 409.7L358 379.9Z" fill="#171717" stroke="#171717"></path><path d="M259 305L336 322L327 262Z" fill="#1f1f1f" stroke="#1f1f1f"></path><path d="M289 445.6L309 440.4L302 409.7Z" fill="#1b1b1b" stroke="#1b1b1b"></path><path d="M577 482.3L576 459.4L534 463.4Z" fill="#0e0e0e" stroke="#0e0e0e"></path><path d="M534 463.4L576 459.4L548 420.6Z" fill="#000000" stroke="#000000"></path><path d="M668 376.7L656 347.9L627 354.9Z" fill="#000000" stroke="#000000"></path><path d="M627 354.9L656 347.9L623 307.9Z" fill="#070707" stroke="#070707"></path><path d="M732 219.1L659 193.3L642 237.3Z" fill="#232323" stroke="#232323"></path><path d="M668 376.7L627 354.9L608 400.7Z" fill="#1b1b1b" stroke="#1b1b1b"></path><path d="M249 248.1L259 305L327 262Z" fill="#070707" stroke="#070707"></path><path d="M563 88.6L512 95.6L536 120.7Z" fill="#070707" stroke="#070707"></path><path d="M536 120.7L512 95.6L484 133.4Z" fill="#000000" stroke="#000000"></path><path d="M668 376.7L666 337L656 347.9Z" fill="#232323" stroke="#232323"></path><path d="M656 347.9L666 337L623 307.9Z" fill="#232323" stroke="#232323"></path><path d="M512 95.6L498 91.7L484 133.4Z" fill="#2c2c2c" stroke="#2c2c2c"></path><path d="M309 440.4L341 466.6L355 445.4Z" fill="#1b1b1b" stroke="#1b1b1b"></path><path d="M355 445.4L341 466.6L417 480.4Z" fill="#232323" stroke="#232323"></path><path d="M503 543.1L455 492.3L431 569.1Z" fill="#000000" stroke="#000000"></path><path d="M279 150.6L272 209.4L288 215.3Z" fill="#000000" stroke="#000000"></path><path d="M288 215.3L249 248.1L327 262Z" fill="#171717" stroke="#171717"></path><path d="M302 409.7L309 440.4L355 445.4Z" fill="#272727" stroke="#272727"></path><path d="M289 445.6L302 409.7L258 424.7Z" fill="#272727" stroke="#272727"></path><path d="M498 91.7L431 86.7L464 138.4Z" fill="#131313" stroke="#131313"></path><path d="M577 482.3L605 456.4L576 459.4Z" fill="#1b1b1b" stroke="#1b1b1b"></path><path d="M576 459.4L605 456.4L578 413.7Z" fill="#070707" stroke="#070707"></path><path d="M605 456.4L626 436.6L578 413.7Z" fill="#0e0e0e" stroke="#0e0e0e"></path><path d="M533 509.3L577 482.3L534 463.4Z" fill="#0e0e0e" stroke="#0e0e0e"></path><path d="M272 209.4L249 248.1L288 215.3Z" fill="#272727" stroke="#272727"></path><path d="M626 436.6L668 376.7L608 400.7Z" fill="#272727" stroke="#272727"></path><path d="M642 237.3L659 193.3L624 208.4Z" fill="#303030" stroke="#303030"></path><path d="M624 208.4L642 164.6L569 205.3Z" fill="#2c2c2c" stroke="#2c2c2c"></path><path d="M732 219.1L642 237.3L643 261.1Z" fill="#0e0e0e" stroke="#0e0e0e"></path><path d="M690 134.4L659 193.3L748 194.3Z" fill="#070707" stroke="#070707"></path><path d="M659 193.3L642 164.6L624 208.4Z" fill="#272727" stroke="#272727"></path><path d="M529 523.1L533 509.3L503 543.1Z" fill="#000000" stroke="#000000"></path><path d="M258 424.7L302 409.7L285 369.9Z" fill="#303030" stroke="#303030"></path><path d="M309 440.4L285 478.4L341 466.6Z" fill="#232323" stroke="#232323"></path><path d="M258 424.7L285 369.9L201 390.6Z" fill="#131313" stroke="#131313"></path><path d="M359 56.7L327 112.6L353 144.4Z" fill="#2c2c2c" stroke="#2c2c2c"></path><path d="M353 144.4L279 150.6L361 181.4Z" fill="#000000" stroke="#000000"></path><path d="M272 209.4L243 228.1L249 248.1Z" fill="#171717" stroke="#171717"></path><path d="M659 193.3L651 166.4L642 164.6Z" fill="#272727" stroke="#272727"></path><path d="M591 70.7L563 88.6L654 117.7Z" fill="#272727" stroke="#272727"></path><path d="M232 215.3L243 228.1L272 209.4Z" fill="#232323" stroke="#232323"></path><path d="M249 248.1L191 308.9L259 305Z" fill="#000000" stroke="#000000"></path><path d="M504 18.9L474 63.7L498 91.7Z" fill="#303030" stroke="#303030"></path><path d="M498 91.7L474 63.7L431 86.7Z" fill="#1b1b1b" stroke="#1b1b1b"></path><path d="M563 88.6L557 143.6L654 117.7Z" fill="#131313" stroke="#131313"></path><path d="M327 112.6L309 121.7L353 144.4Z" fill="#000000" stroke="#000000"></path><path d="M544 33.9L498 91.7L512 95.6Z" fill="#000000" stroke="#000000"></path><path d="M431 86.7L359 56.7L353 144.4Z" fill="#070707" stroke="#070707"></path><path d="M309 121.7L279 150.6L353 144.4Z" fill="#2c2c2c" stroke="#2c2c2c"></path><path d="M503 543.1L533 509.3L483 466.6Z" fill="#232323" stroke="#232323"></path><path d="M533 509.3L617 542.3L577 482.3Z" fill="#1f1f1f" stroke="#1f1f1f"></path><path d="M517 538.3L529 523.1L503 543.1Z" fill="#131313" stroke="#131313"></path><path d="M591 70.7L555 74.9L563 88.6Z" fill="#303030" stroke="#303030"></path><path d="M563 88.6L555 74.9L512 95.6Z" fill="#0e0e0e" stroke="#0e0e0e"></path><path d="M214 351.7L269 332.9L259 305Z" fill="#232323" stroke="#232323"></path><path d="M214 351.7L285 369.9L269 332.9Z" fill="#1b1b1b" stroke="#1b1b1b"></path><path d="M238 165.6L232 215.3L272 209.4Z" fill="#000000" stroke="#000000"></path><path d="M243 228.1L221 239.3L249 248.1Z" fill="#232323" stroke="#232323"></path><path d="M455 492.3L421 481.3L431 569.1Z" fill="#1f1f1f" stroke="#1f1f1f"></path><path d="M644 474.3L605 456.4L577 482.3Z" fill="#171717" stroke="#171717"></path><path d="M644 474.3L626 436.6L605 456.4Z" fill="#2c2c2c" stroke="#2c2c2c"></path><path d="M421 481.3L417 480.4L371 542.3Z" fill="#232323" stroke="#232323"></path><path d="M232 215.3L221 239.3L243 228.1Z" fill="#2c2c2c" stroke="#2c2c2c"></path><path d="M644 474.3L652 458.4L626 436.6Z" fill="#131313" stroke="#131313"></path><path d="M626 436.6L661 453.6L668 376.7Z" fill="#070707" stroke="#070707"></path><path d="M644 474.3L577 482.3L617 542.3Z" fill="#171717" stroke="#171717"></path><path d="M342 519.1L417 480.4L341 466.6Z" fill="#272727" stroke="#272727"></path><path d="M285 478.4L309 440.4L289 445.6Z" fill="#1f1f1f" stroke="#1f1f1f"></path><path d="M285 478.4L342 519.1L341 466.6Z" fill="#1b1b1b" stroke="#1b1b1b"></path><path d="M652 458.4L661 453.6L626 436.6Z" fill="#1b1b1b" stroke="#1b1b1b"></path><path d="M680 491.3L661 453.6L652 458.4Z" fill="#070707" stroke="#070707"></path><path d="M256 464.4L285 478.4L289 445.6Z" fill="#1b1b1b" stroke="#1b1b1b"></path><path d="M617 542.3L533 509.3L529 523.1Z" fill="#1b1b1b" stroke="#1b1b1b"></path><path d="M198 338.9L214 351.7L259 305Z" fill="#303030" stroke="#303030"></path><path d="M258 424.7L256 464.4L289 445.6Z" fill="#171717" stroke="#171717"></path><path d="M279 150.6L238 165.6L272 209.4Z" fill="#070707" stroke="#070707"></path><path d="M161 241.1L158 273L221 239.3Z" fill="#1f1f1f" stroke="#1f1f1f"></path><path d="M263 122.7L238 165.6L279 150.6Z" fill="#2c2c2c" stroke="#2c2c2c"></path><path d="M654 117.7L557 143.6L642 164.6Z" fill="#2c2c2c" stroke="#2c2c2c"></path><path d="M444 8.9L413 27.9L474 63.7Z" fill="#0e0e0e" stroke="#0e0e0e"></path><path d="M413 27.9L431 86.7L474 63.7Z" fill="#171717" stroke="#171717"></path><path d="M413 27.9L359 56.7L431 86.7Z" fill="#0e0e0e" stroke="#0e0e0e"></path><path d="M327 112.6L278 47.7L309 121.7Z" fill="#2c2c2c" stroke="#2c2c2c"></path><path d="M309 121.7L263 122.7L279 150.6Z" fill="#171717" stroke="#171717"></path><path d="M335 566.1L371 542.3L342 519.1Z" fill="#272727" stroke="#272727"></path><path d="M342 519.1L371 542.3L417 480.4Z" fill="#131313" stroke="#131313"></path><path d="M651 166.4L654 117.7L642 164.6Z" fill="#070707" stroke="#070707"></path><path d="M690 134.4L654 117.7L651 166.4Z" fill="#272727" stroke="#272727"></path><path d="M278 47.7L263 122.7L309 121.7Z" fill="#131313" stroke="#131313"></path><path d="M235 467.6L256 464.4L258 424.7Z" fill="#272727" stroke="#272727"></path><path d="M285 478.4L280 507.3L342 519.1Z" fill="#131313" stroke="#131313"></path><path d="M191 308.9L198 338.9L259 305Z" fill="#272727" stroke="#272727"></path><path d="M214 351.7L201 390.6L285 369.9Z" fill="#303030" stroke="#303030"></path><path d="M191 308.9L249 248.1L221 239.3Z" fill="#303030" stroke="#303030"></path><path d="M186 313L191 308.9L174 314Z" fill="#1b1b1b" stroke="#1b1b1b"></path><path d="M544 33.9L512 95.6L555 74.9Z" fill="#000000" stroke="#000000"></path><path d="M371 542.3L431 569.1L421 481.3Z" fill="#000000" stroke="#000000"></path><path d="M560 583.1L529 523.1L517 538.3Z" fill="#1f1f1f" stroke="#1f1f1f"></path><path d="M591 8.9L544 33.9L591 70.7Z" fill="#171717" stroke="#171717"></path><path d="M591 70.7L544 33.9L555 74.9Z" fill="#171717" stroke="#171717"></path><path d="M680 491.3L690 451.4L661 453.6Z" fill="#303030" stroke="#303030"></path><path d="M661 453.6L690 451.4L668 376.7Z" fill="#232323" stroke="#232323"></path><path d="M755 283L643 261.1L666 337Z" fill="#1b1b1b" stroke="#1b1b1b"></path><path d="M659 193.3L690 134.4L651 166.4Z" fill="#1f1f1f" stroke="#1f1f1f"></path><path d="M680 491.3L652 458.4L644 474.3Z" fill="#1b1b1b" stroke="#1b1b1b"></path><path d="M174 314L191 308.9L158 273Z" fill="#303030" stroke="#303030"></path><path d="M191 308.9L186 313L198 338.9Z" fill="#171717" stroke="#171717"></path><path d="M198 338.9L201 390.6L214 351.7Z" fill="#131313" stroke="#131313"></path><path d="M152 390.6L201 390.6L198 338.9Z" fill="#1b1b1b" stroke="#1b1b1b"></path><path d="M235 467.6L280 507.3L256 464.4Z" fill="#070707" stroke="#070707"></path><path d="M256 464.4L280 507.3L285 478.4Z" fill="#1b1b1b" stroke="#1b1b1b"></path><path d="M391 600L425 586.1L431 569.1Z" fill="#1f1f1f" stroke="#1f1f1f"></path><path d="M732 219.1L643 261.1L755 283Z" fill="#171717" stroke="#171717"></path><path d="M654 117.7L615 56.7L591 70.7Z" fill="#0e0e0e" stroke="#0e0e0e"></path><path d="M735 369.7L666 337L668 376.7Z" fill="#1b1b1b" stroke="#1b1b1b"></path><path d="M544 33.9L504 18.9L498 91.7Z" fill="#1f1f1f" stroke="#1f1f1f"></path><path d="M398 0L375 28.9L413 27.9Z" fill="#000000" stroke="#000000"></path><path d="M413 27.9L375 28.9L359 56.7Z" fill="#070707" stroke="#070707"></path><path d="M359 56.7L278 47.7L327 112.6Z" fill="#303030" stroke="#303030"></path><path d="M736 441.4L735 369.7L668 376.7Z" fill="#000000" stroke="#000000"></path><path d="M746 218.3L734 217.1L732 219.1Z" fill="#0e0e0e" stroke="#0e0e0e"></path><path d="M732 219.1L734 217.1L659 193.3Z" fill="#303030" stroke="#303030"></path><path d="M201 390.6L235 467.6L258 424.7Z" fill="#171717" stroke="#171717"></path><path d="M735 369.7L739 361.7L666 337Z" fill="#2c2c2c" stroke="#2c2c2c"></path><path d="M701 16.9L615 56.7L654 117.7Z" fill="#2c2c2c" stroke="#2c2c2c"></path><path d="M495 0L477 0L504 18.9Z" fill="#131313" stroke="#131313"></path><path d="M477 0L444 8.9L474 63.7Z" fill="#0e0e0e" stroke="#0e0e0e"></path><path d="M158 273L191 308.9L221 239.3Z" fill="#303030" stroke="#303030"></path><path d="M186 313L174 314L198 338.9Z" fill="#070707" stroke="#070707"></path><path d="M560 583.1L517 538.3L494 600Z" fill="#303030" stroke="#303030"></path><path d="M560 583.1L617 542.3L529 523.1Z" fill="#0e0e0e" stroke="#0e0e0e"></path><path d="M799 313.9L749 341.9L821 375.7Z" fill="#272727" stroke="#272727"></path><path d="M739 361.7L749 341.9L666 337Z" fill="#272727" stroke="#272727"></path><path d="M391 600L431 569.1L371 542.3Z" fill="#2c2c2c" stroke="#2c2c2c"></path><path d="M431 569.1L470 600L503 543.1Z" fill="#1b1b1b" stroke="#1b1b1b"></path><path d="M617 542.3L680 491.3L644 474.3Z" fill="#171717" stroke="#171717"></path><path d="M690 451.4L736 441.4L668 376.7Z" fill="#2c2c2c" stroke="#2c2c2c"></path><path d="M735 369.7L821 375.7L739 361.7Z" fill="#000000" stroke="#000000"></path><path d="M749 341.9L755 283L666 337Z" fill="#1b1b1b" stroke="#1b1b1b"></path><path d="M263 122.7L216 135.4L238 165.6Z" fill="#2c2c2c" stroke="#2c2c2c"></path><path d="M238 165.6L141 197.3L232 215.3Z" fill="#131313" stroke="#131313"></path><path d="M207 135.4L216 135.4L217 99.7Z" fill="#232323" stroke="#232323"></path><path d="M755 283L746 218.3L732 219.1Z" fill="#171717" stroke="#171717"></path><path d="M746 142.6L705 119.6L690 134.4Z" fill="#000000" stroke="#000000"></path><path d="M504 18.9L477 0L474 63.7Z" fill="#000000" stroke="#000000"></path><path d="M495 0L504 18.9L546 0Z" fill="#1f1f1f" stroke="#1f1f1f"></path><path d="M277 548.3L335 566.1L342 519.1Z" fill="#171717" stroke="#171717"></path><path d="M277 548.3L342 519.1L280 507.3Z" fill="#303030" stroke="#303030"></path><path d="M354 0L338 25.9L375 28.9Z" fill="#303030" stroke="#303030"></path><path d="M375 28.9L338 25.9L359 56.7Z" fill="#2c2c2c" stroke="#2c2c2c"></path><path d="M398 0L413 27.9L444 8.9Z" fill="#070707" stroke="#070707"></path><path d="M546 0L504 18.9L544 33.9Z" fill="#171717" stroke="#171717"></path><path d="M748 194.3L659 193.3L734 217.1Z" fill="#131313" stroke="#131313"></path><path d="M690 134.4L705 119.6L654 117.7Z" fill="#272727" stroke="#272727"></path><path d="M217 99.7L216 135.4L263 122.7Z" fill="#131313" stroke="#131313"></path><path d="M216 135.4L207 135.4L238 165.6Z" fill="#1b1b1b" stroke="#1b1b1b"></path><path d="M494 600L517 538.3L503 543.1Z" fill="#303030" stroke="#303030"></path><path d="M391 600L470 600L425 586.1Z" fill="#0e0e0e" stroke="#0e0e0e"></path><path d="M425 586.1L470 600L431 569.1Z" fill="#232323" stroke="#232323"></path><path d="M746 218.3L748 194.3L734 217.1Z" fill="#1f1f1f" stroke="#1f1f1f"></path><path d="M772 226.1L748 194.3L746 218.3Z" fill="#272727" stroke="#272727"></path><path d="M477 0L398 0L444 8.9Z" fill="#131313" stroke="#131313"></path><path d="M470 600L494 600L503 543.1Z" fill="#131313" stroke="#131313"></path><path d="M161 241.1L221 239.3L232 215.3Z" fill="#303030" stroke="#303030"></path><path d="M144 378.9L152 390.6L198 338.9Z" fill="#2c2c2c" stroke="#2c2c2c"></path><path d="M141 197.3L161 241.1L232 215.3Z" fill="#131313" stroke="#131313"></path><path d="M737 474.3L726 452.6L690 451.4Z" fill="#0e0e0e" stroke="#0e0e0e"></path><path d="M591 8.9L591 70.7L615 56.7Z" fill="#070707" stroke="#070707"></path><path d="M572 0L546 0L544 33.9Z" fill="#1f1f1f" stroke="#1f1f1f"></path><path d="M726 452.6L736 441.4L690 451.4Z" fill="#1b1b1b" stroke="#1b1b1b"></path><path d="M277 31.9L278 47.7L338 25.9Z" fill="#000000" stroke="#000000"></path><path d="M338 25.9L278 47.7L359 56.7Z" fill="#2c2c2c" stroke="#2c2c2c"></path><path d="M384 600L391 600L371 542.3Z" fill="#272727" stroke="#272727"></path><path d="M234 546.3L277 548.3L280 507.3Z" fill="#232323" stroke="#232323"></path><path d="M350 600L384 600L371 542.3Z" fill="#171717" stroke="#171717"></path><path d="M350 600L371 542.3L335 566.1Z" fill="#232323" stroke="#232323"></path><path d="M278 47.7L217 99.7L263 122.7Z" fill="#000000" stroke="#000000"></path><path d="M207 135.4L141 197.3L238 165.6Z" fill="#000000" stroke="#000000"></path><path d="M625 0L591 8.9L615 56.7Z" fill="#2c2c2c" stroke="#2c2c2c"></path><path d="M398 0L354 0L375 28.9Z" fill="#1f1f1f" stroke="#1f1f1f"></path><path d="M591 8.9L572 0L544 33.9Z" fill="#000000" stroke="#000000"></path><path d="M788 229.3L772 226.1L803 262Z" fill="#0e0e0e" stroke="#0e0e0e"></path><path d="M755 283L772 226.1L746 218.3Z" fill="#131313" stroke="#131313"></path><path d="M746 142.6L725 111.6L705 119.6Z" fill="#000000" stroke="#000000"></path><path d="M772 226.1L755 283L803 262Z" fill="#000000" stroke="#000000"></path><path d="M494 600L560 600L560 583.1Z" fill="#232323" stroke="#232323"></path><path d="M622 600L646 565.1L617 542.3Z" fill="#303030" stroke="#303030"></path><path d="M617 542.3L657 561.1L680 491.3Z" fill="#0e0e0e" stroke="#0e0e0e"></path><path d="M680 491.3L737 474.3L690 451.4Z" fill="#1f1f1f" stroke="#1f1f1f"></path><path d="M746 142.6L690 134.4L748 194.3Z" fill="#0e0e0e" stroke="#0e0e0e"></path><path d="M705 119.6L734 61.7L654 117.7Z" fill="#0e0e0e" stroke="#0e0e0e"></path><path d="M758 163.4L746 142.6L748 194.3Z" fill="#232323" stroke="#232323"></path><path d="M324 0L277 31.9L338 25.9Z" fill="#131313" stroke="#131313"></path><path d="M253 21.9L201 88.6L217 99.7Z" fill="#0e0e0e" stroke="#0e0e0e"></path><path d="M294 591.1L350 600L335 566.1Z" fill="#1b1b1b" stroke="#1b1b1b"></path><path d="M201 390.6L168 501.4L235 467.6Z" fill="#2c2c2c" stroke="#2c2c2c"></path><path d="M235 467.6L234 546.3L280 507.3Z" fill="#1f1f1f" stroke="#1f1f1f"></path><path d="M144 378.9L198 338.9L174 314Z" fill="#303030" stroke="#303030"></path><path d="M778 181.4L758 163.4L748 194.3Z" fill="#232323" stroke="#232323"></path><path d="M611 600L617 542.3L560 583.1Z" fill="#000000" stroke="#000000"></path><path d="M726 452.6L755 460.6L736 441.4Z" fill="#1f1f1f" stroke="#1f1f1f"></path><path d="M747 487.4L737 474.3L680 491.3Z" fill="#1b1b1b" stroke="#1b1b1b"></path><path d="M736 441.4L821 375.7L735 369.7Z" fill="#000000" stroke="#000000"></path><path d="M354 0L324 0L338 25.9Z" fill="#171717" stroke="#171717"></path><path d="M645 600L657 561.1L646 565.1Z" fill="#131313" stroke="#131313"></path><path d="M646 565.1L657 561.1L617 542.3Z" fill="#2c2c2c" stroke="#2c2c2c"></path><path d="M119 356.7L174 314L90 312Z" fill="#000000" stroke="#000000"></path><path d="M119 356.7L144 378.9L174 314Z" fill="#000000" stroke="#000000"></path><path d="M799 313.9L755 283L749 341.9Z" fill="#0e0e0e" stroke="#0e0e0e"></path><path d="M772 226.1L778 181.4L748 194.3Z" fill="#131313" stroke="#131313"></path><path d="M253 21.9L217 99.7L278 47.7Z" fill="#1b1b1b" stroke="#1b1b1b"></path><path d="M217 99.7L186 98.6L207 135.4Z" fill="#2c2c2c" stroke="#2c2c2c"></path><path d="M747 487.4L755 460.6L737 474.3Z" fill="#131313" stroke="#131313"></path><path d="M737 474.3L755 460.6L726 452.6Z" fill="#272727" stroke="#272727"></path><path d="M792 184.4L778 181.4L772 226.1Z" fill="#0e0e0e" stroke="#0e0e0e"></path><path d="M758 163.4L794 106.7L746 142.6Z" fill="#171717" stroke="#171717"></path><path d="M794 106.7L734 61.7L725 111.6Z" fill="#070707" stroke="#070707"></path><path d="M157 109.6L141 197.3L207 135.4Z" fill="#171717" stroke="#171717"></path><path d="M161 241.1L114 251.1L158 273Z" fill="#1f1f1f" stroke="#1f1f1f"></path><path d="M821 375.7L749 341.9L739 361.7Z" fill="#000000" stroke="#000000"></path><path d="M560 600L611 600L560 583.1Z" fill="#000000" stroke="#000000"></path><path d="M200 513.3L234 546.3L235 467.6Z" fill="#131313" stroke="#131313"></path><path d="M277 548.3L294 591.1L335 566.1Z" fill="#1f1f1f" stroke="#1f1f1f"></path><path d="M200 513.3L235 467.6L168 501.4Z" fill="#232323" stroke="#232323"></path><path d="M683 0L625 0L615 56.7Z" fill="#131313" stroke="#131313"></path><path d="M591 8.9L625 0L572 0Z" fill="#2c2c2c" stroke="#2c2c2c"></path><path d="M247 600L294 591.1L277 548.3Z" fill="#232323" stroke="#232323"></path><path d="M157 109.6L186 98.6L160 55.9Z" fill="#0e0e0e" stroke="#0e0e0e"></path><path d="M201 88.6L186 98.6L217 99.7Z" fill="#1f1f1f" stroke="#1f1f1f"></path><path d="M168 501.4L201 390.6L127 472.4Z" fill="#2c2c2c" stroke="#2c2c2c"></path><path d="M805 270L803 262L755 283Z" fill="#272727" stroke="#272727"></path><path d="M788 229.3L792 184.4L772 226.1Z" fill="#0e0e0e" stroke="#0e0e0e"></path><path d="M725 538.1L747 487.4L680 491.3Z" fill="#303030" stroke="#303030"></path><path d="M755 460.6L821 375.7L736 441.4Z" fill="#131313" stroke="#131313"></path><path d="M725 538.1L680 491.3L657 561.1Z" fill="#232323" stroke="#232323"></path><path d="M611 600L622 600L617 542.3Z" fill="#232323" stroke="#232323"></path><path d="M119 189.3L128 218.3L141 197.3Z" fill="#070707" stroke="#070707"></path><path d="M141 197.3L128 218.3L161 241.1Z" fill="#131313" stroke="#131313"></path><path d="M799 313.9L805 270L755 283Z" fill="#000000" stroke="#000000"></path><path d="M279 0L253 21.9L277 31.9Z" fill="#171717" stroke="#171717"></path><path d="M277 31.9L253 21.9L278 47.7Z" fill="#1f1f1f" stroke="#1f1f1f"></path><path d="M90 312L174 314L158 273Z" fill="#1f1f1f" stroke="#1f1f1f"></path><path d="M144 378.9L122 389.7L152 390.6Z" fill="#303030" stroke="#303030"></path><path d="M778 181.4L794 106.7L758 163.4Z" fill="#070707" stroke="#070707"></path><path d="M725 111.6L734 61.7L705 119.6Z" fill="#000000" stroke="#000000"></path><path d="M853 238.1L792 184.4L788 229.3Z" fill="#1f1f1f" stroke="#1f1f1f"></path><path d="M853 238.1L788 229.3L803 262Z" fill="#303030" stroke="#303030"></path><path d="M324 0L279 0L277 31.9Z" fill="#131313" stroke="#131313"></path><path d="M128 218.3L114 251.1L161 241.1Z" fill="#070707" stroke="#070707"></path><path d="M119 356.7L122 389.7L144 378.9Z" fill="#303030" stroke="#303030"></path><path d="M622 600L645 600L646 565.1Z" fill="#2c2c2c" stroke="#2c2c2c"></path><path d="M748 556.1L725 538.1L740 600Z" fill="#1f1f1f" stroke="#1f1f1f"></path><path d="M160 55.9L186 98.6L201 88.6Z" fill="#0e0e0e" stroke="#0e0e0e"></path><path d="M186 98.6L157 109.6L207 135.4Z" fill="#131313" stroke="#131313"></path><path d="M128 218.3L85 226.1L114 251.1Z" fill="#1b1b1b" stroke="#1b1b1b"></path><path d="M127 472.4L201 390.6L152 390.6Z" fill="#131313" stroke="#131313"></path><path d="M235 600L247 600L234 546.3Z" fill="#000000" stroke="#000000"></path><path d="M234 546.3L247 600L277 548.3Z" fill="#1b1b1b" stroke="#1b1b1b"></path><path d="M794 106.7L725 111.6L746 142.6Z" fill="#303030" stroke="#303030"></path><path d="M157 109.6L119 189.3L141 197.3Z" fill="#131313" stroke="#131313"></path><path d="M834 394.6L821 375.7L755 460.6Z" fill="#1b1b1b" stroke="#1b1b1b"></path><path d="M799 313.9L834 332.9L805 270Z" fill="#171717" stroke="#171717"></path><path d="M806 464.6L755 460.6L792 496.3Z" fill="#1b1b1b" stroke="#1b1b1b"></path><path d="M734 61.7L701 16.9L654 117.7Z" fill="#1b1b1b" stroke="#1b1b1b"></path><path d="M701 16.9L683 0L615 56.7Z" fill="#1b1b1b" stroke="#1b1b1b"></path><path d="M201 566.1L234 546.3L200 513.3Z" fill="#232323" stroke="#232323"></path><path d="M294 591.1L247 600L350 600Z" fill="#0e0e0e" stroke="#0e0e0e"></path><path d="M119 356.7L79 385.7L122 389.7Z" fill="#2c2c2c" stroke="#2c2c2c"></path><path d="M122 389.7L127 472.4L152 390.6Z" fill="#0e0e0e" stroke="#0e0e0e"></path><path d="M114 251.1L90 312L158 273Z" fill="#1b1b1b" stroke="#1b1b1b"></path><path d="M85 226.1L90 312L114 251.1Z" fill="#070707" stroke="#070707"></path><path d="M821 375.7L834 332.9L799 313.9Z" fill="#1f1f1f" stroke="#1f1f1f"></path><path d="M805 270L853 238.1L803 262Z" fill="#303030" stroke="#303030"></path><path d="M155 569.1L201 566.1L200 513.3Z" fill="#232323" stroke="#232323"></path><path d="M73 389.6L127 472.4L122 389.7Z" fill="#070707" stroke="#070707"></path><path d="M168 501.4L155 569.1L200 513.3Z" fill="#171717" stroke="#171717"></path><path d="M96 154.6L97 196.4L119 189.3Z" fill="#1f1f1f" stroke="#1f1f1f"></path><path d="M119 189.3L97 196.4L128 218.3Z" fill="#000000" stroke="#000000"></path><path d="M201 566.1L235 600L234 546.3Z" fill="#070707" stroke="#070707"></path><path d="M740 13.9L699 0L701 16.9Z" fill="#131313" stroke="#131313"></path><path d="M701 16.9L699 0L683 0Z" fill="#303030" stroke="#303030"></path><path d="M845 348.7L841 333L834 332.9Z" fill="#303030" stroke="#303030"></path><path d="M834 332.9L841 333L805 270Z" fill="#0e0e0e" stroke="#0e0e0e"></path><path d="M127 472.4L140 499.4L168 501.4Z" fill="#000000" stroke="#000000"></path><path d="M832 94.7L794 106.7L848 107.6Z" fill="#272727" stroke="#272727"></path><path d="M792 184.4L794 106.7L778 181.4Z" fill="#232323" stroke="#232323"></path><path d="M734 61.7L740 13.9L701 16.9Z" fill="#2c2c2c" stroke="#2c2c2c"></path><path d="M792 496.3L755 460.6L747 487.4Z" fill="#303030" stroke="#303030"></path><path d="M821 375.7L845 348.7L834 332.9Z" fill="#1b1b1b" stroke="#1b1b1b"></path><path d="M97 196.4L85 226.1L128 218.3Z" fill="#1b1b1b" stroke="#1b1b1b"></path><path d="M806 464.6L834 394.6L755 460.6Z" fill="#232323" stroke="#232323"></path><path d="M748 556.1L792 496.3L747 487.4Z" fill="#000000" stroke="#000000"></path><path d="M748 556.1L747 487.4L725 538.1Z" fill="#1f1f1f" stroke="#1f1f1f"></path><path d="M740 600L725 538.1L657 561.1Z" fill="#171717" stroke="#171717"></path><path d="M855 376.9L845 348.7L821 375.7Z" fill="#2c2c2c" stroke="#2c2c2c"></path><path d="M841 333L853 238.1L805 270Z" fill="#000000" stroke="#000000"></path><path d="M203 0L160 55.9L201 88.6Z" fill="#232323" stroke="#232323"></path><path d="M157 109.6L96 154.6L119 189.3Z" fill="#0e0e0e" stroke="#0e0e0e"></path><path d="M203 0L201 88.6L253 21.9Z" fill="#1b1b1b" stroke="#1b1b1b"></path><path d="M92 151.4L96 154.6L157 109.6Z" fill="#272727" stroke="#272727"></path><path d="M97 196.4L63 179.3L85 226.1Z" fill="#171717" stroke="#171717"></path><path d="M73 389.6L79 385.7L70 376.9Z" fill="#171717" stroke="#171717"></path><path d="M70 376.9L79 385.7L119 356.7Z" fill="#0e0e0e" stroke="#0e0e0e"></path><path d="M117 551.1L155 569.1L140 499.4Z" fill="#171717" stroke="#171717"></path><path d="M279 0L203 0L253 21.9Z" fill="#2c2c2c" stroke="#2c2c2c"></path><path d="M900 275.1L853 238.1L841 333Z" fill="#070707" stroke="#070707"></path><path d="M771 11.9L740 13.9L734 61.7Z" fill="#2c2c2c" stroke="#2c2c2c"></path><path d="M105 79.7L92 151.4L157 109.6Z" fill="#272727" stroke="#272727"></path><path d="M96 154.6L63 179.3L97 196.4Z" fill="#1f1f1f" stroke="#1f1f1f"></path><path d="M70 376.9L119 356.7L90 312Z" fill="#232323" stroke="#232323"></path><path d="M79 385.7L73 389.6L122 389.7Z" fill="#303030" stroke="#303030"></path><path d="M25 356.9L70 376.9L90 312Z" fill="#000000" stroke="#000000"></path><path d="M26 239.1L90 312L85 226.1Z" fill="#000000" stroke="#000000"></path><path d="M834 394.6L855 376.9L821 375.7Z" fill="#070707" stroke="#070707"></path><path d="M900 242.3L868 211.3L853 238.1Z" fill="#070707" stroke="#070707"></path><path d="M900 437.6L855 376.9L834 394.6Z" fill="#1f1f1f" stroke="#1f1f1f"></path><path d="M853 485.3L834 394.6L806 464.6Z" fill="#2c2c2c" stroke="#2c2c2c"></path><path d="M203 0L185 0L160 55.9Z" fill="#303030" stroke="#303030"></path><path d="M160 55.9L105 79.7L157 109.6Z" fill="#272727" stroke="#272727"></path><path d="M832 94.7L799 64.7L794 106.7Z" fill="#1b1b1b" stroke="#1b1b1b"></path><path d="M794 106.7L799 64.7L734 61.7Z" fill="#0e0e0e" stroke="#0e0e0e"></path><path d="M841 506.4L822 491.4L792 496.3Z" fill="#000000" stroke="#000000"></path><path d="M792 496.3L822 491.4L806 464.6Z" fill="#303030" stroke="#303030"></path><path d="M140 499.4L155 569.1L168 501.4Z" fill="#2c2c2c" stroke="#2c2c2c"></path><path d="M201 566.1L158 600L235 600Z" fill="#0e0e0e" stroke="#0e0e0e"></path><path d="M115 547.3L140 499.4L69 486.3Z" fill="#000000" stroke="#000000"></path><path d="M645 600L740 600L657 561.1Z" fill="#131313" stroke="#131313"></path><path d="M810 586.1L841 506.4L792 496.3Z" fill="#171717" stroke="#171717"></path><path d="M185 0L151 23.9L160 55.9Z" fill="#171717" stroke="#171717"></path><path d="M900 302L841 333L900 308.9Z" fill="#2c2c2c" stroke="#2c2c2c"></path><path d="M853 238.1L868 211.3L792 184.4Z" fill="#131313" stroke="#131313"></path><path d="M771 11.9L753 0L740 13.9Z" fill="#1f1f1f" stroke="#1f1f1f"></path><path d="M740 13.9L753 0L699 0Z" fill="#1f1f1f" stroke="#1f1f1f"></path><path d="M58 140.4L63 179.3L92 151.4Z" fill="#1b1b1b" stroke="#1b1b1b"></path><path d="M92 151.4L63 179.3L96 154.6Z" fill="#000000" stroke="#000000"></path><path d="M106 70.7L105 79.7L160 55.9Z" fill="#000000" stroke="#000000"></path><path d="M868 211.3L869 197.4L792 184.4Z" fill="#171717" stroke="#171717"></path><path d="M799 64.7L771 11.9L734 61.7Z" fill="#000000" stroke="#000000"></path><path d="M848 107.6L794 106.7L792 184.4Z" fill="#1f1f1f" stroke="#1f1f1f"></path><path d="M799 64.7L832 32.9L771 11.9Z" fill="#000000" stroke="#000000"></path><path d="M151 23.9L106 70.7L160 55.9Z" fill="#2c2c2c" stroke="#2c2c2c"></path><path d="M105 79.7L58 140.4L92 151.4Z" fill="#131313" stroke="#131313"></path><path d="M69 486.3L140 499.4L127 472.4Z" fill="#171717" stroke="#171717"></path><path d="M115 547.3L117 551.1L140 499.4Z" fill="#232323" stroke="#232323"></path><path d="M157 600L158 600L155 569.1Z" fill="#070707" stroke="#070707"></path><path d="M155 569.1L158 600L201 566.1Z" fill="#0e0e0e" stroke="#0e0e0e"></path><path d="M869 197.4L848 107.6L792 184.4Z" fill="#303030" stroke="#303030"></path><path d="M832 94.7L830 46.9L799 64.7Z" fill="#1f1f1f" stroke="#1f1f1f"></path><path d="M129 600L157 600L155 569.1Z" fill="#303030" stroke="#303030"></path><path d="M810 586.1L792 496.3L748 556.1Z" fill="#0e0e0e" stroke="#0e0e0e"></path><path d="M822 491.4L853 485.3L806 464.6Z" fill="#2c2c2c" stroke="#2c2c2c"></path><path d="M70 76.9L58 140.4L105 79.7Z" fill="#2c2c2c" stroke="#2c2c2c"></path><path d="M63 179.3L26 239.1L85 226.1Z" fill="#171717" stroke="#171717"></path><path d="M841 506.4L853 485.3L822 491.4Z" fill="#232323" stroke="#232323"></path><path d="M900 308.9L841 333L845 348.7Z" fill="#272727" stroke="#272727"></path><path d="M868 211.3L900 173.4L869 197.4Z" fill="#1f1f1f" stroke="#1f1f1f"></path><path d="M185 0L144 0L151 23.9Z" fill="#000000" stroke="#000000"></path><path d="M151 23.9L91 0L106 70.7Z" fill="#070707" stroke="#070707"></path><path d="M106 70.7L70 76.9L105 79.7Z" fill="#171717" stroke="#171717"></path><path d="M95 594.1L129 600L117 551.1Z" fill="#1f1f1f" stroke="#1f1f1f"></path><path d="M54 463.6L69 486.3L127 472.4Z" fill="#303030" stroke="#303030"></path><path d="M54 463.6L127 472.4L73 389.6Z" fill="#272727" stroke="#272727"></path><path d="M54 463.6L0 441.6L5 452.4Z" fill="#171717" stroke="#171717"></path><path d="M900 308.9L845 348.7L900 363.7Z" fill="#303030" stroke="#303030"></path><path d="M869 197.4L888 153.6L848 107.6Z" fill="#1f1f1f" stroke="#1f1f1f"></path><path d="M900 363.7L845 348.7L855 376.9Z" fill="#1b1b1b" stroke="#1b1b1b"></path><path d="M900 302L900 275.1L841 333Z" fill="#232323" stroke="#232323"></path><path d="M0 180.3L26 239.1L63 179.3Z" fill="#000000" stroke="#000000"></path><path d="M25 356.9L73 389.6L70 376.9Z" fill="#1f1f1f" stroke="#1f1f1f"></path><path d="M900 275.1L900 242.3L853 238.1Z" fill="#1b1b1b" stroke="#1b1b1b"></path><path d="M7 329L25 356.9L90 312Z" fill="#070707" stroke="#070707"></path><path d="M900 437.6L900 363.7L855 376.9Z" fill="#2c2c2c" stroke="#2c2c2c"></path><path d="M832 32.9L900 52.9L865 0Z" fill="#171717" stroke="#171717"></path><path d="M900 52.9L830 46.9L832 94.7Z" fill="#232323" stroke="#232323"></path><path d="M771 11.9L845 0L753 0Z" fill="#1b1b1b" stroke="#1b1b1b"></path><path d="M900 173.4L888 153.6L869 197.4Z" fill="#272727" stroke="#272727"></path><path d="M69 72.7L70 76.9L106 70.7Z" fill="#1b1b1b" stroke="#1b1b1b"></path><path d="M0 180.3L0 255.1L26 239.1Z" fill="#232323" stroke="#232323"></path><path d="M117 551.1L129 600L155 569.1Z" fill="#0e0e0e" stroke="#0e0e0e"></path><path d="M95 594.1L117 551.1L115 547.3Z" fill="#272727" stroke="#272727"></path><path d="M95 594.1L115 547.3L27 547.1Z" fill="#171717" stroke="#171717"></path><path d="M800 600L810 586.1L748 556.1Z" fill="#272727" stroke="#272727"></path><path d="M900 481.4L900 437.6L853 485.3Z" fill="#000000" stroke="#000000"></path><path d="M67 23.9L69 72.7L106 70.7Z" fill="#303030" stroke="#303030"></path><path d="M0 135.4L5 158.6L58 140.4Z" fill="#272727" stroke="#272727"></path><path d="M740 600L800 600L748 556.1Z" fill="#1f1f1f" stroke="#1f1f1f"></path><path d="M900 52.9L832 94.7L848 107.6Z" fill="#0e0e0e" stroke="#0e0e0e"></path><path d="M830 46.9L832 32.9L799 64.7Z" fill="#1f1f1f" stroke="#1f1f1f"></path><path d="M900 242.3L900 173.4L868 211.3Z" fill="#1f1f1f" stroke="#1f1f1f"></path><path d="M888 153.6L900 97.7L848 107.6Z" fill="#070707" stroke="#070707"></path><path d="M0 317L7 329L90 312Z" fill="#070707" stroke="#070707"></path><path d="M25 356.9L0 385.7L73 389.6Z" fill="#1b1b1b" stroke="#1b1b1b"></path><path d="M900 173.4L900 160.6L888 153.6Z" fill="#232323" stroke="#232323"></path><path d="M900 481.4L853 485.3L900 527.3Z" fill="#1b1b1b" stroke="#1b1b1b"></path><path d="M853 485.3L900 437.6L834 394.6Z" fill="#1b1b1b" stroke="#1b1b1b"></path><path d="M26 239.1L0 317L90 312Z" fill="#303030" stroke="#303030"></path><path d="M7 329L0 365.9L25 356.9Z" fill="#1b1b1b" stroke="#1b1b1b"></path><path d="M0 255.1L0 317L26 239.1Z" fill="#000000" stroke="#000000"></path><path d="M0 180.3L63 179.3L5 158.6Z" fill="#171717" stroke="#171717"></path><path d="M800 600L817 600L810 586.1Z" fill="#232323" stroke="#232323"></path><path d="M810 586.1L856 574.1L841 506.4Z" fill="#1f1f1f" stroke="#1f1f1f"></path><path d="M0 317L0 365.9L7 329Z" fill="#232323" stroke="#232323"></path><path d="M36 513.3L115 547.3L69 486.3Z" fill="#070707" stroke="#070707"></path><path d="M0 365.9L0 385.7L25 356.9Z" fill="#1b1b1b" stroke="#1b1b1b"></path><path d="M36 513.3L69 486.3L54 463.6Z" fill="#131313" stroke="#131313"></path><path d="M900 527.3L853 485.3L841 506.4Z" fill="#171717" stroke="#171717"></path><path d="M144 0L91 0L151 23.9Z" fill="#2c2c2c" stroke="#2c2c2c"></path><path d="M5 158.6L63 179.3L58 140.4Z" fill="#070707" stroke="#070707"></path><path d="M58 140.4L0 110.6L0 135.4Z" fill="#272727" stroke="#272727"></path><path d="M58 140.4L70 76.9L0 110.6Z" fill="#2c2c2c" stroke="#2c2c2c"></path><path d="M0 478.4L36 513.3L54 463.6Z" fill="#272727" stroke="#272727"></path><path d="M817 600L832 600L810 586.1Z" fill="#303030" stroke="#303030"></path><path d="M91 0L67 23.9L106 70.7Z" fill="#272727" stroke="#272727"></path><path d="M900 160.6L900 97.7L888 153.6Z" fill="#272727" stroke="#272727"></path><path d="M832 600L856 574.1L810 586.1Z" fill="#1b1b1b" stroke="#1b1b1b"></path><path d="M0 441.6L54 463.6L73 389.6Z" fill="#1b1b1b" stroke="#1b1b1b"></path><path d="M0 385.7L0 441.6L73 389.6Z" fill="#272727" stroke="#272727"></path><path d="M865 0L845 0L832 32.9Z" fill="#1f1f1f" stroke="#1f1f1f"></path><path d="M832 32.9L845 0L771 11.9Z" fill="#1f1f1f" stroke="#1f1f1f"></path><path d="M0 110.6L70 76.9L69 72.7Z" fill="#0e0e0e" stroke="#0e0e0e"></path><path d="M5 158.6L0 135.4L0 180.3Z" fill="#0e0e0e" stroke="#0e0e0e"></path><path d="M900 558.1L900 527.3L856 574.1Z" fill="#1f1f1f" stroke="#1f1f1f"></path><path d="M856 574.1L900 527.3L841 506.4Z" fill="#070707" stroke="#070707"></path><path d="M0 441.6L0 478.4L5 452.4Z" fill="#1f1f1f" stroke="#1f1f1f"></path><path d="M5 452.4L0 478.4L54 463.6Z" fill="#131313" stroke="#131313"></path><path d="M36 513.3L27 547.1L115 547.3Z" fill="#232323" stroke="#232323"></path><path d="M0 56.7L0 110.6L69 72.7Z" fill="#131313" stroke="#131313"></path><path d="M900 52.9L832 32.9L830 46.9Z" fill="#303030" stroke="#303030"></path><path d="M900 97.7L900 52.9L848 107.6Z" fill="#000000" stroke="#000000"></path><path d="M0 526.3L27 547.1L36 513.3Z" fill="#000000" stroke="#000000"></path><path d="M900 600L900 558.1L856 574.1Z" fill="#272727" stroke="#272727"></path><path d="M27 547.1L50 600L95 594.1Z" fill="#232323" stroke="#232323"></path><path d="M95 594.1L50 600L129 600Z" fill="#000000" stroke="#000000"></path><path d="M0 478.4L0 517.1L36 513.3Z" fill="#232323" stroke="#232323"></path><path d="M27 547.1L0 600L50 600Z" fill="#303030" stroke="#303030"></path><path d="M0 517.1L0 526.3L36 513.3Z" fill="#1f1f1f" stroke="#1f1f1f"></path><path d="M0 26.9L0 56.7L67 23.9Z" fill="#303030" stroke="#303030"></path><path d="M67 23.9L0 56.7L69 72.7Z" fill="#171717" stroke="#171717"></path><path d="M91 0L34 0L67 23.9Z" fill="#1f1f1f" stroke="#1f1f1f"></path><path d="M900 52.9L900 0L865 0Z" fill="#272727" stroke="#272727"></path><path d="M832 600L900 600L856 574.1Z" fill="#000000" stroke="#000000"></path><path d="M34 0L0 26.9L67 23.9Z" fill="#1f1f1f" stroke="#1f1f1f"></path><path d="M34 0L0 0L0 26.9Z" fill="#171717" stroke="#171717"></path><path d="M0 526.3L0 600L27 547.1Z" fill="#303030" stroke="#303030"></path></g></svg>